<svg xmlns="http://www.w3.org/2000/svg" width="58" height="56.901" viewBox="0 0 58 56.901">
  <g id="dsasd" transform="translate(-2 -2.394)">
    <g id="Group_40" data-name="Group 40" transform="translate(29.792 2.498)">
      <rect id="Rectangle_10" data-name="Rectangle 10" width="2" height="7" transform="translate(0.208 -0.104)"/>
    </g>
    <g id="Group_41" data-name="Group 41" transform="translate(3.208 29.081)">
      <rect id="Rectangle_11" data-name="Rectangle 11" width="7" height="2" transform="translate(-0.208 0.313)"/>
    </g>
    <g id="Group_42" data-name="Group 42" transform="translate(51.542 29.081)">
      <rect id="Rectangle_12" data-name="Rectangle 12" width="7" height="2" transform="translate(0.458 0.313)"/>
    </g>
    <g id="Group_43" data-name="Group 43" transform="translate(48.125 6.33)">
      <rect id="Rectangle_13" data-name="Rectangle 13" width="7.25" height="2.416" transform="translate(0 5.127) rotate(-45)"/>
    </g>
    <g id="Group_44" data-name="Group 44" transform="translate(7.041 6.33)">
      <rect id="Rectangle_14" data-name="Rectangle 14" width="2.416" height="7.25" transform="translate(0 1.709) rotate(-45)"/>
    </g>
    <g id="Group_45" data-name="Group 45" transform="translate(11.667 13.378)">
      <path id="Path_10" data-name="Path 10" d="M10,45.239H28.124V31.331L25.1,34.352l-5.127-5.127,1.709-1.709L25.1,30.934,29.333,26.7l4.23,4.229,3.418-3.418,1.709,1.709-5.127,5.127-3.021-3.021V45.239H48.667v-14.4a19.333,19.333,0,0,0-38.667,0Z" transform="translate(-10 -11.502)" fill="#f93e2b"/>
    </g>
    <g id="Group_46" data-name="Group 46" transform="translate(2 49.531)">
      <path id="Path_11" data-name="Path 11" d="M51.445,41.422H10.555A8.555,8.555,0,0,0,2,49.977v1.208H60V49.977A8.555,8.555,0,0,0,51.445,41.422Z" transform="translate(-2 -41.422)"/>
    </g>
  </g>
</svg>
