<svg xmlns="http://www.w3.org/2000/svg" width="36.67" height="32.04" viewBox="0 0 36.67 32.04">
  <g id="List" transform="translate(0 -2.02)">
    <path id="Path_18" data-name="Path 18" d="M12.126,7.282,33.9,7.3a1.146,1.146,0,0,0,0-2.292L12.126,4.99a1.146,1.146,0,0,0,0,2.292Z" transform="translate(1.602 0.433)" fill="#121313"/>
    <path id="Path_19" data-name="Path 19" d="M33.918,15,12.146,14.98a1.146,1.146,0,1,0,0,2.292l21.773.023a1.146,1.146,0,1,0,0-2.292Z" transform="translate(1.605 1.891)" fill="#121313"/>
    <path id="Path_20" data-name="Path 20" d="M33.918,25,12.146,24.98a1.146,1.146,0,1,0,0,2.292l21.773.023a1.146,1.146,0,0,0,0-2.292Z" transform="translate(1.605 3.35)" fill="#121313"/>
    <path id="Path_21" data-name="Path 21" d="M4.572,2.02A4.572,4.572,0,1,0,9.144,6.592,4.572,4.572,0,0,0,4.572,2.02ZM4.561,8.884a2.292,2.292,0,1,1,0-4.584,2.292,2.292,0,0,1,0,4.584Z" fill="#121313"/>
    <path id="Path_22" data-name="Path 22" d="M4.572,12.02a4.572,4.572,0,1,0,4.572,4.572A4.572,4.572,0,0,0,4.572,12.02Zm-.011,6.864a2.292,2.292,0,1,1,0-4.584,2.292,2.292,0,0,1,0,4.584Z" transform="translate(0 1.459)" fill="#121313"/>
    <path id="Path_23" data-name="Path 23" d="M4.572,22a4.572,4.572,0,1,0,4.572,4.572A4.572,4.572,0,0,0,4.572,22Zm-.011,6.864a2.292,2.292,0,1,1,0-4.584,2.292,2.292,0,1,1,0,4.584Z" transform="translate(0 2.916)" fill="#121313"/>
  </g>
</svg>
